# xmcd
#
# Track frame offsets:
# 150
# 13069
# 32534
# 47829
# 61052
# 73360
# 89211
# 102986
# 115751
# 130958
# 142914
# 158430
#
# Disc length: 2585 seconds
#
#
# Revision: 2
# Processed by: cddbd v1.5.1PL0 Copyright (c) Steve Scherf et al.
# Submitted via: FreeRIP 2.70 
#
DISCID=a20a170c
DTITLE=Os Fagundes - Os Fagundes
DYEAR=1900
DGENRE=Gaúcha
TTITLE0=No Balanço da Morena
TTITLE1=Tropeiro Velho
TTITLE2=Tô no Vanerão
TTITLE3=Sestiando nos Meus Pelegos
TTITLE4=Bate Coxa
TTITLE5=Vide, Vida, Marvada
TTITLE6=Chamamecero Apaixonado
TTITLE7=Galpão Crioulo
TTITLE8=Louco por Chamamé
TTITLE9=Urubu
TTITLE10=Lá no Alegrete
TTITLE11=Prosa em Família
EXTD=
EXTT0=
EXTT1=
EXTT2=
EXTT3=
EXTT4=
EXTT5=
EXTT6=
EXTT7=
EXTT8=
EXTT9=
EXTT10=
EXTT11=
PLAYORDER=
